<?xml version="1.0" standalone="no"?>
<!DOCTYPE svg PUBLIC "-//W3C//DTD SVG 20010904//EN"
 "http://www.w3.org/TR/2001/REC-SVG-20010904/DTD/svg10.dtd">
<svg version="1.0" xmlns="http://www.w3.org/2000/svg"
 width="1024.000000pt" height="1024.000000pt" viewBox="0 0 1024.000000 1024.000000"
 preserveAspectRatio="xMidYMid meet">

<g transform="translate(0.000000,1024.000000) scale(0.100000,-0.100000)"
fill="#000000" stroke="none">
<path d="M0 5120 l0 -5120 5120 0 5120 0 0 5120 0 5120 -5120 0 -5120 0 0
-5120z m8001 4074 c67 -34 98 -137 62 -201 -17 -30 -281 -339 -471 -551 l-83
-92 19 -28 c73 -102 121 -262 129 -423 5 -102 -6 -242 -23 -301 -5 -17 13 -18
285 -18 243 0 297 -3 331 -16 53 -21 80 -66 80 -132 0 -44 -5 -56 -43 -104
-24 -29 -229 -289 -456 -578 -227 -289 -564 -718 -750 -955 -186 -236 -394
-502 -462 -590 -67 -88 -166 -214 -219 -280 -54 -66 -209 -264 -345 -440 -136
-176 -343 -440 -459 -588 -116 -147 -219 -282 -229 -300 -16 -31 -17 -91 -18
-823 -2 -777 -1 -790 19 -854 37 -113 116 -212 210 -263 26 -14 173 -64 327
-111 662 -202 876 -274 906 -302 65 -62 61 -159 -8 -211 l-36 -28 -1631 -3
c-1563 -2 -1632 -1 -1666 16 -23 12 -43 35 -58 64 -29 58 -22 107 22 155 29
30 65 44 461 167 237 74 486 151 555 171 69 21 153 51 188 68 118 57 209 172
243 307 11 45 14 200 14 820 -1 421 -4 778 -8 793 -10 37 -265 375 -698 922
-294 372 -1006 1278 -2079 2645 -97 124 -182 236 -190 249 -19 36 -8 116 21
148 52 56 -65 53 1948 53 l1859 0 6 58 c19 157 83 328 182 480 75 116 250 289
366 360 275 170 593 214 860 121 46 -16 90 -32 98 -35 9 -2 23 7 35 25 24 34
465 532 513 578 54 53 125 63 193 27z"/>
<path d="M6930 8229 c-159 -64 -182 -290 -37 -373 57 -33 99 -40 156 -26 163
39 216 237 94 352 -54 52 -148 73 -213 47z"/>
<path d="M2390 7263 c0 -3 942 -1201 1230 -1563 129 -162 346 -437 484 -610
450 -567 474 -592 651 -675 135 -64 206 -80 365 -80 149 0 225 17 345 77 178
90 265 175 564 548 597 744 1811 2287 1811 2302 0 2 -84 2 -187 1 l-188 -2
-44 -58 c-175 -229 -364 -368 -598 -440 -78 -23 -106 -26 -238 -27 -173 -1
-258 17 -389 84 l-74 38 -45 -56 c-25 -32 -91 -109 -147 -172 l-102 -115 563
-5 c525 -5 564 -6 567 -22 2 -11 -98 -146 -265 -355 -147 -186 -429 -540 -626
-788 -457 -574 -459 -577 -531 -634 -147 -117 -267 -164 -416 -165 -52 0 -120
5 -150 13 -78 19 -187 74 -256 129 -73 59 -55 37 -974 1197 -165 209 -341 429
-391 488 -54 65 -88 114 -85 123 5 12 158 14 1068 14 l1063 0 243 285 242 286
-27 35 c-15 20 -39 60 -53 90 l-25 54 -1693 3 c-930 1 -1692 1 -1692 0z"/>
</g>
</svg>
